<?xml version="1.0" encoding="iso-8859-1"?>
<!-- Generator: Adobe Illustrator 16.0.0, SVG Export Plug-In . SVG Version: 6.00 Build 0)  -->
<!DOCTYPE svg PUBLIC "-//W3C//DTD SVG 1.1//EN" "http://www.w3.org/Graphics/SVG/1.1/DTD/svg11.dtd">
<svg version="1.1" id="Capa_1" xmlns="http://www.w3.org/2000/svg" xmlns:xlink="http://www.w3.org/1999/xlink" x="0px" y="0px"
	 width="361.117px" height="361.117px" viewBox="0 0 361.117 361.117" style="enable-background:new 0 0 361.117 361.117;"
	 xml:space="preserve">
<g>
	<g id="_x36_9._Add_Message">
		<g>
			<path d="M78.503,306.358c0,17.353,8.736,20.402,19.516,6.809l42.793-53.907l-62.31,0.008V306.358z M31.402,227.857V70.851
				h251.214v98.57c4.628-2.703,9.95-4.36,15.696-4.36c5.751,0,11.073,1.657,15.701,4.36v-98.57
				c0-17.342-14.058-31.395-31.397-31.395H31.402C14.06,39.456,0,53.508,0,70.851v157.007c0,17.349,14.06,31.402,31.402,31.402
				h109.418h83.342c-2.697-4.633-4.352-9.946-4.352-15.693c0-5.751,1.654-11.072,4.368-15.709H31.402z M345.416,227.857h-31.41
				v-31.402c0-8.672-7.029-15.701-15.697-15.701c-8.672,0-15.701,7.029-15.701,15.701v31.402h-31.402
				c-8.672,0-15.709,7.029-15.709,15.701c0,8.668,7.037,15.701,15.709,15.701h31.402v31.402c0,8.668,7.029,15.696,15.701,15.696
				c8.668,0,15.697-7.028,15.697-15.696V259.26h31.41c8.664,0,15.701-7.033,15.701-15.701
				C361.117,234.887,354.08,227.857,345.416,227.857z"/>
		</g>
	</g>
</g>
<g>
</g>
<g>
</g>
<g>
</g>
<g>
</g>
<g>
</g>
<g>
</g>
<g>
</g>
<g>
</g>
<g>
</g>
<g>
</g>
<g>
</g>
<g>
</g>
<g>
</g>
<g>
</g>
<g>
</g>
</svg>
