<svg width="15" height="15" viewBox="0 0 15 15" fill="none" xmlns="http://www.w3.org/2000/svg">
<path fill-rule="evenodd" clip-rule="evenodd" d="M13.9691 4.11821C13.9363 3.37395 13.8159 2.86227 13.6435 2.41889C13.4656 1.94826 13.192 1.52691 12.8335 1.17663C12.4832 0.820906 12.0591 0.544492 11.5939 0.369408C11.148 0.196996 10.639 0.0766393 9.89469 0.0438244C9.14486 0.00823043 8.90682 0 7.00506 0C5.10329 0 4.86525 0.00823043 4.11821 0.0410453C3.37394 0.0738602 2.86227 0.194324 2.419 0.366629C1.94826 0.544492 1.52691 0.818127 1.17663 1.17663C0.820905 1.52691 0.544598 1.95104 0.369407 2.41622C0.196996 2.86227 0.0766392 3.37117 0.0438244 4.11543C0.00823042 4.86526 0 5.1033 0 7.00506C0 8.90683 0.00823042 9.14487 0.0410453 9.89192C0.0738601 10.6362 0.194324 11.1479 0.366735 11.5912C0.544598 12.0619 0.820905 12.4832 1.17663 12.8335C1.52691 13.1892 1.95104 13.4656 2.41622 13.6407C2.86227 13.8131 3.37116 13.9335 4.11554 13.9663C4.86247 13.9992 5.10062 14.0074 7.00239 14.0074C8.90415 14.0074 9.14219 13.9992 9.88924 13.9663C10.6335 13.9335 11.1452 13.8131 11.5884 13.6407C12.5298 13.2768 13.2741 12.5325 13.638 11.5912C13.8103 11.1452 13.9308 10.6362 13.9636 9.89192C13.9964 9.14487 14.0047 8.90683 14.0047 7.00506C14.0047 5.1033 14.0019 4.86526 13.9691 4.11821ZM12.7077 9.83719C12.6775 10.5213 12.5626 10.8907 12.4669 11.137C12.2315 11.7472 11.7472 12.2315 11.1369 12.4669C10.8907 12.5626 10.5186 12.6775 9.83718 12.7076C9.09837 12.7405 8.87679 12.7486 7.00784 12.7486C5.13889 12.7486 4.91453 12.7405 4.17839 12.7076C3.4943 12.6775 3.12489 12.5626 2.87862 12.4669C2.57495 12.3546 2.29853 12.1768 2.07418 11.9442C1.84159 11.717 1.66372 11.4434 1.55149 11.1397C1.45572 10.8935 1.34081 10.5213 1.31078 9.83997C1.27785 9.10115 1.26973 8.87947 1.26973 7.01052C1.26973 5.14157 1.27785 4.91721 1.31078 4.18117C1.34081 3.49708 1.45572 3.12767 1.55149 2.8814C1.66372 2.57762 1.84159 2.30132 2.07695 2.07685C2.30399 1.84426 2.57762 1.6664 2.8814 1.55427C3.12767 1.4585 3.49986 1.34359 4.18117 1.31345C4.91998 1.28063 5.14167 1.2724 7.01051 1.2724C8.88224 1.2724 9.10382 1.28063 9.83996 1.31345C10.524 1.34359 10.8935 1.4585 11.1397 1.55427C11.4434 1.6664 11.7198 1.84426 11.9442 2.07685C12.1768 2.30399 12.3546 2.57762 12.4669 2.8814C12.5626 3.12767 12.6775 3.49975 12.7077 4.18117C12.7405 4.91998 12.7487 5.14157 12.7487 7.01052C12.7487 8.87947 12.7405 9.09838 12.7077 9.83719ZM7.07511 3.50186C5.08858 3.50186 3.47681 5.11353 3.47681 7.10017C3.47681 9.0868 5.08858 10.6985 7.07511 10.6985C9.06175 10.6985 10.6734 9.0868 10.6734 7.10017C10.6734 5.11353 9.06175 3.50186 7.07511 3.50186ZM7.07511 9.4343C5.78635 9.4343 4.74098 8.38903 4.74098 7.10017C4.74098 5.8113 5.78635 4.76604 7.07511 4.76604C8.36398 4.76604 9.40924 5.8113 9.40924 7.10017C9.40924 8.38903 8.36398 9.4343 7.07511 9.4343ZM10.7452 4.10452C11.2092 4.10452 11.5853 3.72838 11.5853 3.26448C11.5853 2.80047 11.2092 2.42444 10.7452 2.42444C10.2813 2.42444 9.90515 2.80047 9.90515 3.26448C9.90515 3.72838 10.2813 4.10452 10.7452 4.10452Z" fill="url(#paint0_linear)"/>
<defs>
<linearGradient id="paint0_linear" x1="7.00233" y1="0" x2="7.00233" y2="14.0074" gradientUnits="userSpaceOnUse">
<stop stop-color="white"/>
<stop offset="1" stop-color="white" stop-opacity="0.7"/>
</linearGradient>
</defs>
</svg>
