<svg width="15" height="9" viewBox="0 0 15 9" fill="none" xmlns="http://www.w3.org/2000/svg">
<path d="M14.8663 8.02743C14.826 7.95645 14.5766 7.38659 13.3765 6.21531C12.1202 4.98883 12.2889 5.18799 13.8022 3.06728C14.7238 1.77572 15.0923 0.986988 14.9769 0.649804C14.8672 0.328395 14.1894 0.413183 14.1894 0.413183L11.9355 0.426986C11.9355 0.426986 11.7686 0.403324 11.6439 0.481212C11.5229 0.558114 11.4451 0.735579 11.4451 0.735579C11.4451 0.735579 11.0879 1.7353 10.6116 2.58516C9.60748 4.37855 9.20526 4.4732 9.04119 4.36179C8.6596 4.10249 8.75523 3.31869 8.75523 2.76263C8.75523 1.02445 9.00556 0.299803 8.26675 0.112478C8.02111 0.0503654 7.8411 0.00895679 7.21386 0.00205536C6.40943 -0.00681791 5.72782 0.00501312 5.34248 0.203183C5.08558 0.335296 4.88776 0.630086 5.0087 0.646846C5.15778 0.667551 5.4953 0.74248 5.67438 0.998819C5.90596 1.3291 5.89752 2.07248 5.89752 2.07248C5.89752 2.07248 6.03065 4.11827 5.58718 4.37263C5.28247 4.54714 4.86525 4.19122 3.96988 2.56347C3.5114 1.73037 3.1645 0.808537 3.1645 0.808537C3.1645 0.808537 3.09794 0.636987 2.97887 0.545297C2.83448 0.433888 2.63197 0.398395 2.63197 0.398395L0.488683 0.412198C0.488683 0.412198 0.167097 0.422057 0.0489629 0.568959C-0.0560448 0.700086 0.0405248 0.970227 0.0405248 0.970227C0.0405248 0.970227 1.71877 5.09827 3.61829 7.17954C5.36123 9.0873 7.3395 8.96208 7.3395 8.96208H8.23581C8.23581 8.96208 8.50677 8.93053 8.64459 8.77377C8.7721 8.62983 8.76742 8.35969 8.76742 8.35969C8.76742 8.35969 8.7496 7.09475 9.30839 6.90842C9.85875 6.72503 10.5657 8.13095 11.3148 8.67222C11.8811 9.08138 12.3114 8.99166 12.3114 8.99166L14.315 8.96208C14.315 8.96208 15.3632 8.89406 14.8663 8.02743Z" fill="url(#paint0_linear)"/>
<defs>
<linearGradient id="paint0_linear" x1="7.5" y1="0" x2="7.5" y2="9" gradientUnits="userSpaceOnUse">
<stop stop-color="white"/>
<stop offset="1" stop-color="white" stop-opacity="0.7"/>
</linearGradient>
</defs>
</svg>
